<?xml version="1.0" encoding="us-ascii" standalone="no"?><svg xmlns="http://www.w3.org/2000/svg" xmlns:xlink="http://www.w3.org/1999/xlink" contentStyleType="text/css" height="1413px" preserveAspectRatio="none" style="width:1104px;height:1413px;background:#FFFFFF;" version="1.1" viewBox="0 0 1104 1413" width="1104px" zoomAndPan="magnify"><defs/><g><rect fill="none" height="20.9531" style="stroke:none;stroke-width:1.0;" width="1043.5" x="15" y="12.7451"/><ellipse cx="293.5" cy="48.6982" fill="#222222" rx="10" ry="10" style="stroke:#222222;stroke-width:1.0;"/><rect fill="#F1F1F1" height="33.9688" rx="12.5" ry="12.5" style="stroke:#181818;stroke-width:0.5;" width="121" x="233" y="78.6982"/><text fill="#000000" font-family="sans-serif" font-size="12" lengthAdjust="spacing" textLength="101" x="243" y="99.8369">&#1042;&#1099;&#1073;&#1088;&#1072;&#1090;&#1100; &#1090;&#1086;&#1074;&#1072;&#1088;</text><rect fill="#F1F1F1" height="33.9688" rx="12.5" ry="12.5" style="stroke:#181818;stroke-width:0.5;" width="211" x="188" y="132.667"/><text fill="#000000" font-family="sans-serif" font-size="12" lengthAdjust="spacing" textLength="191" x="198" y="153.8057">&#1053;&#1072;&#1095;&#1072;&#1090;&#1100; &#1086;&#1092;&#1086;&#1088;&#1084;&#1083;&#1077;&#1085;&#1080;&#1077; &#1087;&#1086;&#1082;&#1091;&#1087;&#1082;&#1080;</text><polygon fill="#F1F1F1" points="168.5,296.3149,418.5,296.3149,430.5,308.3149,418.5,320.3149,168.5,320.3149,156.5,308.3149,168.5,296.3149" style="stroke:#181818;stroke-width:0.5;"/><text fill="#000000" font-family="sans-serif" font-size="11" lengthAdjust="spacing" textLength="250" x="168.5" y="312.123">&#1050;&#1083;&#1080;&#1077;&#1085;&#1090; &#1093;&#1086;&#1095;&#1077;&#1090; &#1091;&#1076;&#1072;&#1083;&#1080;&#1090;&#1100; &#1090;&#1086;&#1074;&#1072;&#1088; &#1080;&#1079; &#1082;&#1086;&#1088;&#1079;&#1080;&#1085;&#1099;?</text><text fill="#000000" font-family="sans-serif" font-size="11" lengthAdjust="spacing" textLength="15" x="141.5" y="305.7207">&#1076;&#1072;</text><text fill="#000000" font-family="sans-serif" font-size="11" lengthAdjust="spacing" textLength="21" x="430.5" y="305.7207">&#1085;&#1077;&#1090;</text><rect fill="#F1F1F1" height="33.9688" rx="12.5" ry="12.5" style="stroke:#181818;stroke-width:0.5;" width="197" x="48" y="330.3149"/><text fill="#000000" font-family="sans-serif" font-size="12" lengthAdjust="spacing" textLength="177" x="58" y="351.4536">&#1059;&#1076;&#1072;&#1083;&#1080;&#1090;&#1100; &#1090;&#1086;&#1074;&#1072;&#1088; &#1080;&#1079; &#1082;&#1086;&#1088;&#1079;&#1080;&#1085;&#1099;</text><rect fill="#F1F1F1" height="33.9688" rx="12.5" ry="12.5" style="stroke:#181818;stroke-width:0.5;" width="106" x="387.5" y="330.3149"/><text fill="#000000" font-family="sans-serif" font-size="12" lengthAdjust="spacing" textLength="86" x="397.5" y="351.4536">&#1053;&#1072;&#1081;&#1090;&#1080; &#1090;&#1086;&#1074;&#1072;&#1088;</text><rect fill="#F1F1F1" height="33.9688" rx="12.5" ry="12.5" style="stroke:#181818;stroke-width:0.5;" width="196" x="342.5" y="384.2837"/><text fill="#000000" font-family="sans-serif" font-size="12" lengthAdjust="spacing" textLength="176" x="352.5" y="405.4224">&#1044;&#1086;&#1073;&#1072;&#1074;&#1080;&#1090;&#1100; &#1090;&#1086;&#1074;&#1072;&#1088; &#1074; &#1082;&#1086;&#1088;&#1079;&#1080;&#1085;&#1091;</text><polygon fill="#F1F1F1" points="293.5,424.2524,305.5,436.2524,293.5,448.2524,281.5,436.2524,293.5,424.2524" style="stroke:#181818;stroke-width:0.5;"/><polygon fill="#F1F1F1" points="195,240.6045,392,240.6045,404,252.6045,392,264.6045,195,264.6045,183,252.6045,195,240.6045" style="stroke:#181818;stroke-width:0.5;"/><text fill="#000000" font-family="sans-serif" font-size="11" lengthAdjust="spacing" textLength="22" x="297.5" y="274.8149">&#1053;&#1077;&#1090;</text><text fill="#000000" font-family="sans-serif" font-size="11" lengthAdjust="spacing" textLength="197" x="195" y="256.4126">&#1050;&#1083;&#1080;&#1077;&#1085;&#1090; &#1093;&#1086;&#1095;&#1077;&#1090; &#1087;&#1077;&#1088;&#1077;&#1081;&#1090;&#1080; &#1082; &#1086;&#1087;&#1083;&#1072;&#1090;&#1077;?</text><text fill="#000000" font-family="sans-serif" font-size="11" lengthAdjust="spacing" textLength="17" x="166" y="250.0103">&#1044;&#1072;</text><polygon fill="#F1F1F1" points="204.5,659.7407,382.5,659.7407,394.5,671.7407,382.5,683.7407,204.5,683.7407,192.5,671.7407,204.5,659.7407" style="stroke:#181818;stroke-width:0.5;"/><text fill="#000000" font-family="sans-serif" font-size="11" lengthAdjust="spacing" textLength="178" x="204.5" y="675.5488">&#1082;&#1083;&#1080;&#1077;&#1085;&#1090; &#1089;&#1086;&#1075;&#1083;&#1072;&#1089;&#1080;&#1083;&#1089;&#1103; &#1086;&#1087;&#1083;&#1072;&#1090;&#1080;&#1090;&#1100;?</text><text fill="#000000" font-family="sans-serif" font-size="11" lengthAdjust="spacing" textLength="15" x="177.5" y="669.1465">&#1076;&#1072;</text><text fill="#000000" font-family="sans-serif" font-size="11" lengthAdjust="spacing" textLength="21" x="394.5" y="669.1465">&#1085;&#1077;&#1090;</text><rect fill="#F1F1F1" height="33.9688" rx="12.5" ry="12.5" style="stroke:#181818;stroke-width:0.5;" width="172" x="79.75" y="940.8223"/><text fill="#000000" font-family="sans-serif" font-size="12" lengthAdjust="spacing" textLength="152" x="89.75" y="961.9609">&#1042;&#1099;&#1073;&#1086;&#1088; &#1089;&#1087;&#1086;&#1089;&#1086;&#1073;&#1072; &#1086;&#1087;&#1083;&#1072;&#1090;&#1099;</text><line style="stroke:#000000;stroke-width:1.5;" x1="15" x2="15" y1="12.7451" y2="1401.502"/><rect fill="#F1F1F1" height="33.9688" rx="12.5" ry="12.5" style="stroke:#181818;stroke-width:0.5;" width="132" x="788.25" y="186.6357"/><text fill="#000000" font-family="sans-serif" font-size="12" lengthAdjust="spacing" textLength="112" x="798.25" y="207.7744">&#1057;&#1086;&#1079;&#1076;&#1072;&#1090;&#1100; &#1082;&#1086;&#1088;&#1079;&#1080;&#1085;&#1091;</text><rect fill="#F1F1F1" height="33.9688" rx="12.5" ry="12.5" style="stroke:#181818;stroke-width:0.5;" width="175" x="766.75" y="475.8345"/><text fill="#000000" font-family="sans-serif" font-size="12" lengthAdjust="spacing" textLength="155" x="776.75" y="496.9731">&#1055;&#1086;&#1089;&#1095;&#1080;&#1090;&#1072;&#1090;&#1100; &#1086;&#1073;&#1097;&#1091;&#1102; &#1094;&#1077;&#1085;&#1091;</text><rect fill="#F1F1F1" height="33.9688" rx="12.5" ry="12.5" style="stroke:#181818;stroke-width:0.5;" width="201" x="753.75" y="529.8032"/><text fill="#000000" font-family="sans-serif" font-size="12" lengthAdjust="spacing" textLength="181" x="763.75" y="550.9419">&#1055;&#1086;&#1089;&#1095;&#1080;&#1090;&#1072;&#1090;&#1100; &#1073;&#1086;&#1085;&#1091;&#1089;&#1085;&#1099;&#1077; &#1073;&#1072;&#1083;&#1083;&#1099;</text><rect fill="#F1F1F1" height="33.9688" rx="12.5" ry="12.5" style="stroke:#181818;stroke-width:0.5;" width="138" x="785.25" y="583.772"/><text fill="#000000" font-family="sans-serif" font-size="12" lengthAdjust="spacing" textLength="118" x="795.25" y="604.9106">&#1055;&#1088;&#1080;&#1084;&#1077;&#1085;&#1080;&#1090;&#1100; &#1072;&#1082;&#1094;&#1080;&#1080;</text><rect fill="#F1F1F1" height="33.9688" rx="12.5" ry="12.5" style="stroke:#181818;stroke-width:0.5;" width="141" x="656" y="807.8535"/><text fill="#000000" font-family="sans-serif" font-size="12" lengthAdjust="spacing" textLength="121" x="666" y="828.9922">&#1054;&#1090;&#1084;&#1077;&#1085;&#1080;&#1090;&#1100; &#1087;&#1086;&#1082;&#1091;&#1087;&#1082;&#1091;</text><ellipse cx="726.5" cy="887.8223" fill="none" rx="11" ry="11" style="stroke:#222222;stroke-width:1.0;"/><ellipse cx="726.5" cy="887.8223" fill="#222222" rx="6" ry="6" style="stroke:#222222;stroke-width:1.0;"/><polygon fill="#F1F1F1" points="612.5,759.4512,840.5,759.4512,852.5,771.4512,840.5,783.4512,612.5,783.4512,600.5,771.4512,612.5,759.4512" style="stroke:#181818;stroke-width:0.5;"/><text fill="#000000" font-family="sans-serif" font-size="11" lengthAdjust="spacing" textLength="15" x="730.5" y="793.6616">&#1076;&#1072;</text><text fill="#000000" font-family="sans-serif" font-size="11" lengthAdjust="spacing" textLength="228" x="612.5" y="775.2593">&#1074;&#1088;&#1077;&#1084;&#1103; &#1086;&#1078;&#1080;&#1076;&#1072;&#1085;&#1080;&#1103; &#1087;&#1086;&#1076;&#1086;&#1096;&#1083;&#1086; &#1082; &#1087;&#1088;&#1077;&#1076;&#1077;&#1083;&#1091;?</text><polygon fill="#F1F1F1" points="585.5,703.7407,867.5,703.7407,879.5,715.7407,867.5,727.7407,585.5,727.7407,573.5,715.7407,585.5,703.7407" style="stroke:#181818;stroke-width:0.5;"/><text fill="#000000" font-family="sans-serif" font-size="11" lengthAdjust="spacing" textLength="21" x="730.5" y="737.9512">&#1085;&#1077;&#1090;</text><text fill="#000000" font-family="sans-serif" font-size="11" lengthAdjust="spacing" textLength="282" x="585.5" y="719.5488">&#1050;&#1083;&#1080;&#1077;&#1085;&#1090; &#1087;&#1088;&#1077;&#1076;&#1086;&#1089;&#1090;&#1072;&#1074;&#1080;&#1083; &#1085;&#1091;&#1078;&#1085;&#1091;&#1102; &#1076;&#1077;&#1085;&#1077;&#1078;&#1085;&#1091;&#1102; &#1089;&#1091;&#1084;&#1084;&#1091;?</text><text fill="#000000" font-family="sans-serif" font-size="11" lengthAdjust="spacing" textLength="15" x="558.5" y="713.1465">&#1076;&#1072;</text><rect fill="#F1F1F1" height="33.9688" rx="12.5" ry="12.5" style="stroke:#181818;stroke-width:0.5;" width="126" x="663.5" y="1016.791"/><text fill="#000000" font-family="sans-serif" font-size="12" lengthAdjust="spacing" textLength="106" x="673.5" y="1037.9297">&#1055;&#1088;&#1086;&#1074;&#1077;&#1089;&#1090;&#1080; &#1087;&#1083;&#1072;&#1090;&#1091;</text><rect fill="#F1F1F1" height="33.9688" rx="12.5" ry="12.5" style="stroke:#181818;stroke-width:0.5;" width="199" x="627" y="1119.1621"/><text fill="#000000" font-family="sans-serif" font-size="12" lengthAdjust="spacing" textLength="179" x="637" y="1140.3008">&#1053;&#1072;&#1095;&#1080;&#1089;&#1083;&#1080;&#1090;&#1100; &#1073;&#1086;&#1085;&#1091;&#1089;&#1085;&#1099;&#1077; &#1073;&#1072;&#1083;&#1083;&#1099;</text><polygon fill="#F1F1F1" points="626,1070.7598,827,1070.7598,839,1082.7598,827,1094.7598,626,1094.7598,614,1082.7598,626,1070.7598" style="stroke:#181818;stroke-width:0.5;"/><text fill="#000000" font-family="sans-serif" font-size="11" lengthAdjust="spacing" textLength="15" x="730.5" y="1104.9702">&#1076;&#1072;</text><text fill="#000000" font-family="sans-serif" font-size="11" lengthAdjust="spacing" textLength="201" x="626" y="1086.5679">&#1050;&#1083;&#1080;&#1077;&#1085;&#1090; &#1087;&#1088;&#1080;&#1084;&#1077;&#1085;&#1080;&#1083; &#1073;&#1086;&#1085;&#1091;&#1089;&#1085;&#1091;&#1102; &#1082;&#1072;&#1088;&#1090;&#1091;</text><polygon fill="#F1F1F1" points="726.5,1173.1309,738.5,1185.1309,726.5,1197.1309,714.5,1185.1309,726.5,1173.1309" style="stroke:#181818;stroke-width:0.5;"/><rect fill="#F1F1F1" height="33.9688" rx="12.5" ry="12.5" style="stroke:#181818;stroke-width:0.5;" width="119" x="667" y="1265.5332"/><text fill="#000000" font-family="sans-serif" font-size="12" lengthAdjust="spacing" textLength="99" x="677" y="1286.6719">&#1054;&#1090;&#1087;&#1088;&#1072;&#1074;&#1080;&#1090;&#1100; &#1095;&#1077;&#1082;</text><polygon fill="#F1F1F1" points="601,1217.1309,852,1217.1309,864,1229.1309,852,1241.1309,601,1241.1309,589,1229.1309,601,1217.1309" style="stroke:#181818;stroke-width:0.5;"/><text fill="#000000" font-family="sans-serif" font-size="11" lengthAdjust="spacing" textLength="15" x="730.5" y="1251.3413">&#1076;&#1072;</text><text fill="#000000" font-family="sans-serif" font-size="11" lengthAdjust="spacing" textLength="251" x="601" y="1232.939">&#1050;&#1083;&#1080;&#1077;&#1085;&#1090; &#1089;&#1086;&#1075;&#1083;&#1072;&#1089;&#1080;&#1083;&#1089;&#1103; &#1087;&#1086;&#1083;&#1091;&#1095;&#1080;&#1090;&#1100; &#1082;&#1086;&#1087;&#1080;&#1102; &#1095;&#1077;&#1082;&#1072;?</text><polygon fill="#F1F1F1" points="726.5,1319.502,738.5,1331.502,726.5,1343.502,714.5,1331.502,726.5,1319.502" style="stroke:#181818;stroke-width:0.5;"/><ellipse cx="726.5" cy="1374.502" fill="none" rx="11" ry="11" style="stroke:#222222;stroke-width:1.0;"/><ellipse cx="726.5" cy="1374.502" fill="#222222" rx="6" ry="6" style="stroke:#222222;stroke-width:1.0;"/><rect fill="#F1F1F1" height="33.9688" rx="12.5" ry="12.5" style="stroke:#181818;stroke-width:0.5;" width="141" x="911.5" y="703.7407"/><text fill="#000000" font-family="sans-serif" font-size="12" lengthAdjust="spacing" textLength="121" x="921.5" y="724.8794">&#1054;&#1090;&#1084;&#1077;&#1085;&#1080;&#1090;&#1100; &#1087;&#1086;&#1082;&#1091;&#1087;&#1082;&#1091;</text><ellipse cx="982" cy="778.6152" fill="none" rx="11" ry="11" style="stroke:#222222;stroke-width:1.0;"/><ellipse cx="982" cy="778.6152" fill="#222222" rx="6" ry="6" style="stroke:#222222;stroke-width:1.0;"/><line style="stroke:#000000;stroke-width:1.5;" x1="542.5" x2="542.5" y1="12.7451" y2="1401.502"/><line style="stroke:#000000;stroke-width:1.5;" x1="1056.5" x2="1056.5" y1="12.7451" y2="1401.502"/><polygon fill="#181818" points="1074.5,453.8345,1078.5,443.8345,1082.5,453.8345,1078.5,449.8345" style="stroke:#181818;stroke-width:1.0;"/><polygon fill="#181818" points="887.5,864.4199,891.5,854.4199,895.5,864.4199,891.5,860.4199" style="stroke:#181818;stroke-width:1.0;"/><line style="stroke:#181818;stroke-width:1.0;" x1="293.5" x2="293.5" y1="58.6982" y2="78.6982"/><polygon fill="#181818" points="289.5,68.6982,293.5,78.6982,297.5,68.6982,293.5,72.6982" style="stroke:#181818;stroke-width:1.0;"/><line style="stroke:#181818;stroke-width:1.0;" x1="293.5" x2="293.5" y1="112.667" y2="132.667"/><polygon fill="#181818" points="289.5,122.667,293.5,132.667,297.5,122.667,293.5,126.667" style="stroke:#181818;stroke-width:1.0;"/><line style="stroke:#181818;stroke-width:1.0;" x1="440.5" x2="440.5" y1="364.2837" y2="384.2837"/><polygon fill="#181818" points="436.5,374.2837,440.5,384.2837,444.5,374.2837,440.5,378.2837" style="stroke:#181818;stroke-width:1.0;"/><line style="stroke:#181818;stroke-width:1.0;" x1="156.5" x2="146.5" y1="308.3149" y2="308.3149"/><line style="stroke:#181818;stroke-width:1.0;" x1="146.5" x2="146.5" y1="308.3149" y2="330.3149"/><polygon fill="#181818" points="142.5,320.3149,146.5,330.3149,150.5,320.3149,146.5,324.3149" style="stroke:#181818;stroke-width:1.0;"/><line style="stroke:#181818;stroke-width:1.0;" x1="430.5" x2="440.5" y1="308.3149" y2="308.3149"/><line style="stroke:#181818;stroke-width:1.0;" x1="440.5" x2="440.5" y1="308.3149" y2="330.3149"/><polygon fill="#181818" points="436.5,320.3149,440.5,330.3149,444.5,320.3149,440.5,324.3149" style="stroke:#181818;stroke-width:1.0;"/><line style="stroke:#181818;stroke-width:1.0;" x1="146.5" x2="146.5" y1="364.2837" y2="436.2524"/><line style="stroke:#181818;stroke-width:1.0;" x1="146.5" x2="281.5" y1="436.2524" y2="436.2524"/><polygon fill="#181818" points="271.5,432.2524,281.5,436.2524,271.5,440.2524,275.5,436.2524" style="stroke:#181818;stroke-width:1.0;"/><line style="stroke:#181818;stroke-width:1.0;" x1="440.5" x2="440.5" y1="418.2524" y2="436.2524"/><line style="stroke:#181818;stroke-width:1.0;" x1="440.5" x2="305.5" y1="436.2524" y2="436.2524"/><polygon fill="#181818" points="315.5,432.2524,305.5,436.2524,315.5,440.2524,311.5,436.2524" style="stroke:#181818;stroke-width:1.0;"/><line style="stroke:#181818;stroke-width:1.0;" x1="293.5" x2="293.5" y1="264.6045" y2="296.3149"/><polygon fill="#181818" points="289.5,286.3149,293.5,296.3149,297.5,286.3149,293.5,290.3149" style="stroke:#181818;stroke-width:1.0;"/><line style="stroke:#181818;stroke-width:1.0;" x1="183" x2="34" y1="252.6045" y2="252.6045"/><polygon fill="#181818" points="30,445.8345,34,455.8345,38,445.8345,34,449.8345" style="stroke:#181818;stroke-width:1.0;"/><line style="stroke:#181818;stroke-width:1.0;" x1="34" x2="34" y1="252.6045" y2="639.7407"/><line style="stroke:#181818;stroke-width:1.0;" x1="34" x2="293.5" y1="639.7407" y2="639.7407"/><line style="stroke:#181818;stroke-width:1.0;" x1="293.5" x2="293.5" y1="639.7407" y2="659.7407"/><polygon fill="#181818" points="289.5,649.7407,293.5,659.7407,297.5,649.7407,293.5,653.7407" style="stroke:#181818;stroke-width:1.0;"/><line style="stroke:#181818;stroke-width:1.0;" x1="854.25" x2="854.25" y1="509.8032" y2="529.8032"/><polygon fill="#181818" points="850.25,519.8032,854.25,529.8032,858.25,519.8032,854.25,523.8032" style="stroke:#181818;stroke-width:1.0;"/><line style="stroke:#181818;stroke-width:1.0;" x1="854.25" x2="854.25" y1="563.772" y2="583.772"/><polygon fill="#181818" points="850.25,573.772,854.25,583.772,858.25,573.772,854.25,577.772" style="stroke:#181818;stroke-width:1.0;"/><line style="stroke:#181818;stroke-width:1.0;" x1="726.5" x2="726.5" y1="841.8223" y2="876.8223"/><polygon fill="#181818" points="722.5,866.8223,726.5,876.8223,730.5,866.8223,726.5,870.8223" style="stroke:#181818;stroke-width:1.0;"/><line style="stroke:#181818;stroke-width:1.0;" x1="726.5" x2="726.5" y1="783.4512" y2="807.8535"/><polygon fill="#181818" points="722.5,797.8535,726.5,807.8535,730.5,797.8535,726.5,801.8535" style="stroke:#181818;stroke-width:1.0;"/><line style="stroke:#181818;stroke-width:1.0;" x1="852.5" x2="864.5" y1="771.4512" y2="771.4512"/><polygon fill="#181818" points="860.5,849.0879,864.5,859.0879,868.5,849.0879,864.5,853.0879" style="stroke:#181818;stroke-width:1.0;"/><line style="stroke:#181818;stroke-width:1.0;" x1="864.5" x2="864.5" y1="771.4512" y2="925.8223"/><line style="stroke:#181818;stroke-width:1.0;" x1="864.5" x2="165.75" y1="925.8223" y2="925.8223"/><line style="stroke:#181818;stroke-width:1.0;" x1="165.75" x2="165.75" y1="925.8223" y2="940.8223"/><polygon fill="#181818" points="161.75,930.8223,165.75,940.8223,169.75,930.8223,165.75,934.8223" style="stroke:#181818;stroke-width:1.0;"/><line style="stroke:#181818;stroke-width:1.0;" x1="726.5" x2="726.5" y1="727.7407" y2="759.4512"/><polygon fill="#181818" points="722.5,749.4512,726.5,759.4512,730.5,749.4512,726.5,753.4512" style="stroke:#181818;stroke-width:1.0;"/><line style="stroke:#181818;stroke-width:1.0;" x1="573.5" x2="561.5" y1="715.7407" y2="715.7407"/><polygon fill="#181818" points="557.5,856.4199,561.5,866.4199,565.5,856.4199,561.5,860.4199" style="stroke:#181818;stroke-width:1.0;"/><line style="stroke:#181818;stroke-width:1.0;" x1="561.5" x2="561.5" y1="715.7407" y2="996.791"/><line style="stroke:#181818;stroke-width:1.0;" x1="561.5" x2="726.5" y1="996.791" y2="996.791"/><line style="stroke:#181818;stroke-width:1.0;" x1="726.5" x2="726.5" y1="996.791" y2="1016.791"/><polygon fill="#181818" points="722.5,1006.791,726.5,1016.791,730.5,1006.791,726.5,1010.791" style="stroke:#181818;stroke-width:1.0;"/><line style="stroke:#181818;stroke-width:1.0;" x1="726.5" x2="726.5" y1="1094.7598" y2="1119.1621"/><polygon fill="#181818" points="722.5,1109.1621,726.5,1119.1621,730.5,1109.1621,726.5,1113.1621" style="stroke:#181818;stroke-width:1.0;"/><line style="stroke:#181818;stroke-width:1.0;" x1="839" x2="851" y1="1082.7598" y2="1082.7598"/><polygon fill="#181818" points="847,1126.1465,851,1136.1465,855,1126.1465,851,1130.1465" style="stroke:#181818;stroke-width:1.0;"/><line style="stroke:#181818;stroke-width:1.0;" x1="851" x2="851" y1="1082.7598" y2="1185.1309"/><line style="stroke:#181818;stroke-width:1.0;" x1="851" x2="738.5" y1="1185.1309" y2="1185.1309"/><polygon fill="#181818" points="748.5,1181.1309,738.5,1185.1309,748.5,1189.1309,744.5,1185.1309" style="stroke:#181818;stroke-width:1.0;"/><line style="stroke:#181818;stroke-width:1.0;" x1="726.5" x2="726.5" y1="1153.1309" y2="1173.1309"/><polygon fill="#181818" points="722.5,1163.1309,726.5,1173.1309,730.5,1163.1309,726.5,1167.1309" style="stroke:#181818;stroke-width:1.0;"/><line style="stroke:#181818;stroke-width:1.0;" x1="726.5" x2="726.5" y1="1050.7598" y2="1070.7598"/><polygon fill="#181818" points="722.5,1060.7598,726.5,1070.7598,730.5,1060.7598,726.5,1064.7598" style="stroke:#181818;stroke-width:1.0;"/><line style="stroke:#181818;stroke-width:1.0;" x1="726.5" x2="726.5" y1="1241.1309" y2="1265.5332"/><polygon fill="#181818" points="722.5,1255.5332,726.5,1265.5332,730.5,1255.5332,726.5,1259.5332" style="stroke:#181818;stroke-width:1.0;"/><line style="stroke:#181818;stroke-width:1.0;" x1="864" x2="876" y1="1229.1309" y2="1229.1309"/><polygon fill="#181818" points="872,1272.5176,876,1282.5176,880,1272.5176,876,1276.5176" style="stroke:#181818;stroke-width:1.0;"/><line style="stroke:#181818;stroke-width:1.0;" x1="876" x2="876" y1="1229.1309" y2="1331.502"/><line style="stroke:#181818;stroke-width:1.0;" x1="876" x2="738.5" y1="1331.502" y2="1331.502"/><polygon fill="#181818" points="748.5,1327.502,738.5,1331.502,748.5,1335.502,744.5,1331.502" style="stroke:#181818;stroke-width:1.0;"/><line style="stroke:#181818;stroke-width:1.0;" x1="726.5" x2="726.5" y1="1299.502" y2="1319.502"/><polygon fill="#181818" points="722.5,1309.502,726.5,1319.502,730.5,1309.502,726.5,1313.502" style="stroke:#181818;stroke-width:1.0;"/><line style="stroke:#181818;stroke-width:1.0;" x1="726.5" x2="726.5" y1="1197.1309" y2="1217.1309"/><polygon fill="#181818" points="722.5,1207.1309,726.5,1217.1309,730.5,1207.1309,726.5,1211.1309" style="stroke:#181818;stroke-width:1.0;"/><line style="stroke:#181818;stroke-width:1.0;" x1="726.5" x2="726.5" y1="1343.502" y2="1363.502"/><polygon fill="#181818" points="722.5,1353.502,726.5,1363.502,730.5,1353.502,726.5,1357.502" style="stroke:#181818;stroke-width:1.0;"/><line style="stroke:#181818;stroke-width:1.0;" x1="982" x2="982" y1="737.7095" y2="767.6152"/><polygon fill="#181818" points="978,757.6152,982,767.6152,986,757.6152,982,761.6152" style="stroke:#181818;stroke-width:1.0;"/><line style="stroke:#181818;stroke-width:1.0;" x1="293.5" x2="293.5" y1="166.6357" y2="171.6357"/><line style="stroke:#181818;stroke-width:1.0;" x1="293.5" x2="854.25" y1="171.6357" y2="171.6357"/><line style="stroke:#181818;stroke-width:1.0;" x1="854.25" x2="854.25" y1="171.6357" y2="186.6357"/><polygon fill="#181818" points="850.25,176.6357,854.25,186.6357,858.25,176.6357,854.25,180.6357" style="stroke:#181818;stroke-width:1.0;"/><line style="stroke:#181818;stroke-width:1.0;" x1="293.5" x2="293.5" y1="448.2524" y2="460.8345"/><line style="stroke:#181818;stroke-width:1.0;" x1="293.5" x2="854.25" y1="460.8345" y2="460.8345"/><line style="stroke:#181818;stroke-width:1.0;" x1="854.25" x2="854.25" y1="460.8345" y2="475.8345"/><polygon fill="#181818" points="850.25,465.8345,854.25,475.8345,858.25,465.8345,854.25,469.8345" style="stroke:#181818;stroke-width:1.0;"/><line style="stroke:#181818;stroke-width:1.0;" x1="854.25" x2="854.25" y1="617.7407" y2="627.7407"/><line style="stroke:#181818;stroke-width:1.0;" x1="854.25" x2="1078.5" y1="627.7407" y2="627.7407"/><line style="stroke:#181818;stroke-width:1.0;" x1="1078.5" x2="1078.5" y1="252.6045" y2="627.7407"/><line style="stroke:#181818;stroke-width:1.0;" x1="1078.5" x2="404" y1="252.6045" y2="252.6045"/><polygon fill="#181818" points="414,248.6045,404,252.6045,414,256.6045,410,252.6045" style="stroke:#181818;stroke-width:1.0;"/><line style="stroke:#181818;stroke-width:1.0;" x1="854.25" x2="854.25" y1="220.6045" y2="225.6045"/><line style="stroke:#181818;stroke-width:1.0;" x1="854.25" x2="293.5" y1="225.6045" y2="225.6045"/><line style="stroke:#181818;stroke-width:1.0;" x1="293.5" x2="293.5" y1="225.6045" y2="240.6045"/><polygon fill="#181818" points="289.5,230.6045,293.5,240.6045,297.5,230.6045,293.5,234.6045" style="stroke:#181818;stroke-width:1.0;"/><line style="stroke:#181818;stroke-width:1.0;" x1="165.75" x2="165.75" y1="974.791" y2="984.791"/><line style="stroke:#181818;stroke-width:1.0;" x1="165.75" x2="891.5" y1="984.791" y2="984.791"/><line style="stroke:#181818;stroke-width:1.0;" x1="891.5" x2="891.5" y1="715.7407" y2="984.791"/><line style="stroke:#181818;stroke-width:1.0;" x1="891.5" x2="879.5" y1="715.7407" y2="715.7407"/><polygon fill="#181818" points="889.5,711.7407,879.5,715.7407,889.5,719.7407,885.5,715.7407" style="stroke:#181818;stroke-width:1.0;"/><line style="stroke:#181818;stroke-width:1.0;" x1="192.5" x2="180.5" y1="671.7407" y2="671.7407"/><line style="stroke:#181818;stroke-width:1.0;" x1="180.5" x2="180.5" y1="671.7407" y2="689.7407"/><line style="stroke:#181818;stroke-width:1.0;" x1="180.5" x2="726.5" y1="689.7407" y2="689.7407"/><line style="stroke:#181818;stroke-width:1.0;" x1="726.5" x2="726.5" y1="689.7407" y2="703.7407"/><polygon fill="#181818" points="722.5,693.7407,726.5,703.7407,730.5,693.7407,726.5,697.7407" style="stroke:#181818;stroke-width:1.0;"/><line style="stroke:#181818;stroke-width:1.0;" x1="394.5" x2="982" y1="671.7407" y2="671.7407"/><line style="stroke:#181818;stroke-width:1.0;" x1="982" x2="982" y1="671.7407" y2="703.7407"/><polygon fill="#181818" points="978,693.7407,982,703.7407,986,693.7407,982,697.7407" style="stroke:#181818;stroke-width:1.0;"/><text fill="#000000" font-family="sans-serif" font-size="18" lengthAdjust="spacing" textLength="74" x="241.75" y="29.4531">&#1050;&#1083;&#1080;&#1077;&#1085;&#1090;</text><text fill="#000000" font-family="sans-serif" font-size="18" lengthAdjust="spacing" textLength="140" x="729.5" y="29.4531">&#1057;&#1077;&#1088;&#1074;&#1080;&#1089; &#1089;&#1082;&#1080;&#1076;&#1086;&#1082;</text><!--SRC=[bLHBJkD04DttANffha0MSvQH229In8n893PPnFOC36844fhLI80G5qXCJ8oTpnMgRpIlgkrsst4Knb8KkxhwrQjNhtj2VwcWZ59QcsYYHkEl5sDrJ0_cbkPcIZCJcT_QHBIX11_J7jOUyN9Thj36_C1lIYkW08EHD6sHdfiO_pbbFJMX5qgHar1cGcr2ZjA2SoQ0Uy7B4fybO2vmIsIiJTnJsDmWU7as6FPru0Ur-OazroWHSMckbD87E6T00qF42aQdzCkH7em2D83K8wNn34xtOw41iEArbWWQsSicqrj0Zy_wvm5liT3y7DFhVs3qt3vvwGz7_G2IEhByjEIe2s4gPTF-jEhrFmZEaPDqK4bsP9VwvoU3KsMBxX-WHN_6zX2w0Tiv0mQwCR6vq-PAw9QmdSbpf2C3qD21BJGNrOfA56n2_Gms4vFPJJEOx0f1M0nSnHa1-eJ-BPMKaZdd_fn3L7mJOuG85Y1qxtj5IfH3rTvKFwL7bqbfAxvSIE-H7GGLchkcT-dzJcELsqjT0AanUbwPkBHkomtILYB0Ayl_NPZCHAHxUnAvv2ymsSXng6Yaw3dkQB1sp1DeDlJsZdKrpEePZRzzTu7QE1sEzImfbmpxZYNSiZ3MezuSgldNytL4Fs5AhBB7Kr4yqmwq9Bzp-4KSPpAUZkzBcL3E9uOXkfMhRaTGSeV-eBcjNdlkeqwVyYGmFdk6obiJmOmjWykBMJP7grLphjoeTnV8dlQfLswmV1Ffodpwm7r-o3QC-0y0]--></g></svg>