<?xml version="1.0" encoding="us-ascii" standalone="no"?><svg xmlns="http://www.w3.org/2000/svg" xmlns:xlink="http://www.w3.org/1999/xlink" contentStyleType="text/css" height="622px" preserveAspectRatio="none" style="width:723px;height:622px;background:#FFFFFF;" version="1.1" viewBox="0 0 723 622" width="723px" zoomAndPan="magnify"><defs/><g><g id="EmptyCart"><rect fill="#F1F1F1" height="50" rx="12.5" ry="12.5" style="stroke:#181818;stroke-width:0.5;" width="136" x="287.5" y="87"/><line style="stroke:#181818;stroke-width:0.5;" x1="287.5" x2="423.5" y1="113.2969" y2="113.2969"/><text fill="#000000" font-family="sans-serif" font-size="14" lengthAdjust="spacing" textLength="116" x="297.5" y="104.9951">&#1055;&#1091;&#1089;&#1090;&#1072;&#1103; &#1050;&#1086;&#1088;&#1079;&#1080;&#1085;&#1072;</text></g><g id="NotSoEmptyCart"><rect fill="#F1F1F1" height="50" rx="12.5" ry="12.5" style="stroke:#181818;stroke-width:0.5;" width="158" x="276.5" y="214"/><line style="stroke:#181818;stroke-width:0.5;" x1="276.5" x2="434.5" y1="240.2969" y2="240.2969"/><text fill="#000000" font-family="sans-serif" font-size="14" lengthAdjust="spacing" textLength="138" x="286.5" y="231.9951">&#1053;&#1077; &#1087;&#1091;&#1089;&#1090;&#1072;&#1103; &#1050;&#1086;&#1088;&#1079;&#1080;&#1085;&#1072;</text></g><g id="Recount"><rect fill="#F1F1F1" height="50" rx="12.5" ry="12.5" style="stroke:#181818;stroke-width:0.5;" width="91" x="7" y="356"/><line style="stroke:#181818;stroke-width:0.5;" x1="7" x2="98" y1="382.2969" y2="382.2969"/><text fill="#000000" font-family="sans-serif" font-size="14" lengthAdjust="spacing" textLength="71" x="17" y="373.9951">&#1055;&#1077;&#1088;&#1077;&#1089;&#1095;&#1105;&#1090;</text></g><g id="WaitForMoney"><rect fill="#F1F1F1" height="50" rx="12.5" ry="12.5" style="stroke:#181818;stroke-width:0.5;" width="169" x="343" y="356"/><line style="stroke:#181818;stroke-width:0.5;" x1="343" x2="512" y1="382.2969" y2="382.2969"/><text fill="#000000" font-family="sans-serif" font-size="14" lengthAdjust="spacing" textLength="149" x="353" y="373.9951">&#1042; &#1086;&#1078;&#1080;&#1076;&#1072;&#1085;&#1080;&#1080; &#1086;&#1087;&#1083;&#1072;&#1090;&#1099;</text></g><g id="Paid"><rect fill="#F1F1F1" height="50" rx="12.5" ry="12.5" style="stroke:#181818;stroke-width:0.5;" width="92" x="296.5" y="483"/><line style="stroke:#181818;stroke-width:0.5;" x1="296.5" x2="388.5" y1="509.2969" y2="509.2969"/><text fill="#000000" font-family="sans-serif" font-size="14" lengthAdjust="spacing" textLength="72" x="306.5" y="500.9951">&#1054;&#1087;&#1083;&#1072;&#1095;&#1077;&#1085;&#1086;</text></g><g id="Canceled"><rect fill="#F1F1F1" height="50" rx="12.5" ry="12.5" style="stroke:#181818;stroke-width:0.5;" width="95" x="534" y="483"/><line style="stroke:#181818;stroke-width:0.5;" x1="534" x2="629" y1="509.2969" y2="509.2969"/><text fill="#000000" font-family="sans-serif" font-size="14" lengthAdjust="spacing" textLength="75" x="544" y="500.9951">&#1054;&#1090;&#1084;&#1077;&#1085;&#1077;&#1085;&#1086;</text></g><ellipse cx="355.5" cy="16" fill="#222222" rx="10" ry="10" style="stroke:#222222;stroke-width:1.0;"/><ellipse cx="342.5" cy="605" fill="none" rx="11" ry="11" style="stroke:#222222;stroke-width:1.0;"/><ellipse cx="342.5" cy="605" fill="#222222" rx="6" ry="6" style="stroke:#222222;stroke-width:1.0;"/><!--link *start* to EmptyCart--><g id="link_*start*_EmptyCart"><path d="M355.5,26.36 C355.5,40.29 355.5,60.95 355.5,80.65 " fill="none" id="*start*-to-EmptyCart" style="stroke:#181818;stroke-width:1.0;"/><polygon fill="#181818" points="355.5,86.65,359.5,77.65,355.5,81.65,351.5,77.65,355.5,86.65" style="stroke:#181818;stroke-width:1.0;"/></g><!--link EmptyCart to NotSoEmptyCart--><g id="link_EmptyCart_NotSoEmptyCart"><path d="M355.5,137.4 C355.5,159.42 355.5,185.66 355.5,207.66 " fill="none" id="EmptyCart-to-NotSoEmptyCart" style="stroke:#181818;stroke-width:1.0;"/><polygon fill="#181818" points="355.5,213.66,359.5,204.66,355.5,208.66,351.5,204.66,355.5,213.66" style="stroke:#181818;stroke-width:1.0;"/><text fill="#000000" font-family="sans-serif" font-size="13" lengthAdjust="spacing" textLength="129" x="356.5" y="180.0669">&#1076;&#1086;&#1073;&#1072;&#1074;&#1080;&#1090;&#1100; &#1087;&#1088;&#1086;&#1076;&#1091;&#1082;&#1090;</text></g><!--link NotSoEmptyCart to Recount--><g id="link_NotSoEmptyCart_Recount"><path d="M303.4,264.47 C287.44,272.91 270.22,283.04 255.5,294 C239.37,306.02 240.69,315.56 223.5,326 C184.51,349.67 140.0113,362.6472 104.0513,370.5172 " fill="none" id="NotSoEmptyCart-to-Recount" style="stroke:#181818;stroke-width:1.0;"/><polygon fill="#181818" points="98.19,371.8,107.8371,373.7834,103.0744,370.731,106.1267,365.9683,98.19,371.8" style="stroke:#181818;stroke-width:1.0;"/><text fill="#000000" font-family="sans-serif" font-size="13" lengthAdjust="spacing" textLength="130" x="256.5" y="314.5669">&#1044;&#1086;&#1073;&#1072;&#1074;&#1080;&#1090;&#1100; &#1087;&#1088;&#1086;&#1076;&#1091;&#1082;&#1090;</text></g><!--link Recount to NotSoEmptyCart--><g id="link_Recount_NotSoEmptyCart"><path d="M42.07,355.67 C35.74,336.71 31.33,310.85 45.5,294 C52.96,285.13 180.8929,265.1464 270.2529,252.1064 " fill="none" id="Recount-to-NotSoEmptyCart" style="stroke:#181818;stroke-width:1.0;"/><polygon fill="#181818" points="276.19,251.24,266.7067,248.5815,271.2424,251.962,267.8619,256.4977,276.19,251.24" style="stroke:#181818;stroke-width:1.0;"/><text fill="#000000" font-family="sans-serif" font-size="13" lengthAdjust="spacing" textLength="135" x="63" y="307.0669">&#1055;&#1077;&#1088;&#1077;&#1089;&#1095;&#1105;&#1090; &#1087;&#1088;&#1086;&#1074;&#1077;&#1076;&#1105;&#1085;</text><text fill="#000000" font-family="sans-serif" font-size="13" lengthAdjust="spacing" textLength="168" x="46.5" y="322.1997">[&#1074; &#1082;&#1086;&#1088;&#1079;&#1080;&#1085;&#1077; &#1077;&#1089;&#1090;&#1100; &#1090;&#1086;&#1074;&#1072;&#1088;&#1099;]</text></g><!--link Recount to EmptyCart--><g id="link_Recount_EmptyCart"><path d="M37.86,355.68 C29.31,338.33 21.47,314.53 28.5,294 C43.06,251.44 54.36,240.78 90.5,214 C149.73,170.1 224.5477,144.5276 281.2577,129.5976 " fill="none" id="Recount-to-EmptyCart" style="stroke:#181818;stroke-width:1.0;"/><polygon fill="#181818" points="287.06,128.07,277.3382,126.4932,282.2248,129.343,279.3749,134.2295,287.06,128.07" style="stroke:#181818;stroke-width:1.0;"/><text fill="#000000" font-family="sans-serif" font-size="13" lengthAdjust="spacing" textLength="135" x="107.5" y="236.0669">&#1055;&#1077;&#1088;&#1077;&#1089;&#1095;&#1105;&#1090; &#1087;&#1088;&#1086;&#1074;&#1077;&#1076;&#1105;&#1085;</text><text fill="#000000" font-family="sans-serif" font-size="13" lengthAdjust="spacing" textLength="167" x="91.5" y="251.1997">[&#1074; &#1082;&#1086;&#1088;&#1079;&#1080;&#1085;&#1077; &#1085;&#1077;&#1090; &#1090;&#1086;&#1074;&#1072;&#1088;&#1086;&#1074;]</text></g><!--link NotSoEmptyCart to Canceled--><g id="link_NotSoEmptyCart_Canceled"><path d="M434.72,244.31 C472.17,250.5 514.5,264.24 541.5,294 C589.67,347.08 588.8289,433.1334 584.9689,476.7534 " fill="none" id="NotSoEmptyCart-to-Canceled" style="stroke:#181818;stroke-width:1.0;"/><polygon fill="#181818" points="584.44,482.73,589.2178,474.1176,584.8807,477.7495,581.2489,473.4124,584.44,482.73" style="stroke:#181818;stroke-width:1.0;"/><text fill="#000000" font-family="sans-serif" font-size="13" lengthAdjust="spacing" textLength="66" x="585.5" y="385.5669">&#1086;&#1090;&#1084;&#1077;&#1085;&#1077;&#1085;&#1086;</text></g><!--link EmptyCart to Canceled--><g id="link_EmptyCart_Canceled"><path d="M423.81,132.19 C447.43,140.68 473.28,152.16 494.5,167 C586.12,231.08 621.08,251.38 660.5,356 C678.13,402.79 642.3021,449.3768 613.0321,478.5168 " fill="none" id="EmptyCart-to-Canceled" style="stroke:#181818;stroke-width:1.0;"/><polygon fill="#181818" points="608.78,482.75,617.9802,479.2349,612.3234,479.2223,612.336,473.5655,608.78,482.75" style="stroke:#181818;stroke-width:1.0;"/><text fill="#000000" font-family="sans-serif" font-size="13" lengthAdjust="spacing" textLength="66" x="649.5" y="314.5669">&#1086;&#1090;&#1084;&#1077;&#1085;&#1077;&#1085;&#1086;</text></g><!--link NotSoEmptyCart to WaitForMoney--><g id="link_NotSoEmptyCart_WaitForMoney"><path d="M375.76,264.29 C382.62,273.26 389.94,283.74 395.5,294 C406.28,313.89 413.1451,332.4479 418.7251,350.1379 " fill="none" id="NotSoEmptyCart-to-WaitForMoney" style="stroke:#181818;stroke-width:1.0;"/><polygon fill="#181818" points="420.53,355.86,421.6373,346.0736,419.0259,351.0916,414.0079,348.4802,420.53,355.86" style="stroke:#181818;stroke-width:1.0;"/><text fill="#000000" font-family="sans-serif" font-size="13" lengthAdjust="spacing" textLength="122" x="410.5" y="314.5669">&#1087;&#1077;&#1088;&#1077;&#1081;&#1090;&#1080; &#1082; &#1086;&#1087;&#1083;&#1072;&#1090;&#1077;</text></g><!--link WaitForMoney to Canceled--><g id="link_WaitForMoney_Canceled"><path d="M444.58,406.23 C455.7,420.9 471.14,439.35 487.5,453 C501.37,464.57 512.8168,472.143 528.2568,480.733 " fill="none" id="WaitForMoney-to-Canceled" style="stroke:#181818;stroke-width:1.0;"/><polygon fill="#181818" points="533.5,483.65,527.5799,475.779,529.1307,481.2191,523.6905,482.7699,533.5,483.65" style="stroke:#181818;stroke-width:1.0;"/><text fill="#000000" font-family="sans-serif" font-size="13" lengthAdjust="spacing" textLength="66" x="488.5" y="449.0669">&#1086;&#1090;&#1084;&#1077;&#1085;&#1077;&#1085;&#1086;</text></g><!--link WaitForMoney to Paid--><g id="link_WaitForMoney_Paid"><path d="M368.93,406.32 C357.16,414.02 346.33,423.8 339.5,436 C331.67,450 331.4234,462.1986 334.2034,476.6086 " fill="none" id="WaitForMoney-to-Paid" style="stroke:#181818;stroke-width:1.0;"/><polygon fill="#181818" points="335.34,482.5,337.5627,472.9052,334.3929,477.5905,329.7076,474.4207,335.34,482.5" style="stroke:#181818;stroke-width:1.0;"/><text fill="#000000" font-family="sans-serif" font-size="13" lengthAdjust="spacing" textLength="106" x="340.5" y="449.0669">&#1054;&#1087;&#1083;&#1072;&#1090;&#1072; &#1087;&#1088;&#1086;&#1096;&#1083;&#1072;</text></g><!--link Paid to *end*--><g id="link_Paid_*end*"><path d="M342.5,533.46 C342.5,553.04 342.5,573.49 342.5,587.8 " fill="none" id="Paid-to-*end*" style="stroke:#181818;stroke-width:1.0;"/><polygon fill="#181818" points="342.5,593.8,346.5,584.8,342.5,588.8,338.5,584.8,342.5,593.8" style="stroke:#181818;stroke-width:1.0;"/></g><!--SRC=[hPAzJeDW58Rtxog-T3Jf3JYuDBffZ0uEbU5Boz14mHGwT4CwrAGcfiR9nFOMa80YMhY5S-x8Sv3VjgaEBa0EptlUysVPojPb2vOumLjqmSC72S-Ge0Fl4C4Al9PKbZoylh777JMqXPKBNY2KaEvMdPZskRafNK98O4ZAASxHpT0plMUEZ8fvb9306-KAmADy4KGSIE6Jl5oSPPeBDR2FpE6nQUZZKhZ8eIc4f4ioy5GD-XL0zNvbFokWeuoUVgNtXUZkQRBTFgWrN7vbyMPBSbzIWGcyKf4-H5JPFG_5eL204uZH5Mi2pf7tokAdtUA2tEwyDiT2x5DZ0SvXTMbqmPSGr_P2EsEUhMWCp7heu4nhEFs32Js8hIpuhMsRHJ5vjagQcn5_9xSahXy7IzAVFk23f7HBSUsSg63Hm7-psu3vm1XSb2czV51unm6H0KpIVNq3]--></g></svg>